PathFileType	4	(X/Y/Z)	c:/Users/goper/Files/vsCode/490R/osim_files/C03/C03_SSW_04.trc
DataRate	CameraRate	NumFrames	NumMarkers	Units                	OrigDataRate	OrigDataStartFrame	OrigNumFrames
250.00	250.00	4	36	mm	250.0	1644	2629
                Frame#	Time	LPSIS			LASIS			LTH1			LTH2			LTH3			LTH4			LLFE			LMFE			LSH1			LSH2			LSH3			LSH4			LLMAL			LMMAL			LCAL			LMTP5			LTOE			LMTP1			RPSIS			RASIS			RTH1			RTH2			RTH3			RTH4			RLFE			RMFE			RSH1			RSH2			RSH3			RSH4			RLMAL			RMMAL			RCAL			RMTP1			RTOE			RMTP5		
		X1	Y1	Z1	X2	Y2	Z2	X3	Y3	Z3	X4	Y4	Z4	X5	Y5	Z5	X6	Y6	Z6	X7	Y7	Z7	X8	Y8	Z8	X9	Y9	Z9	X10	Y10	Z10	X11	Y11	Z11	X12	Y12	Z12	X13	Y13	Z13	X14	Y14	Z14	X15	Y15	Z15	X16	Y16	Z16	X17	Y17	Z17	X18	Y18	Z18	X19	Y19	Z19	X20	Y20	Z20	X21	Y21	Z21	X22	Y22	Z22	X23	Y23	Z23	X24	Y24	Z24	X25	Y25	Z25	X26	Y26	Z26	X27	Y27	Z27	X28	Y28	Z28	X29	Y29	Z29	X30	Y30	Z30	X31	Y31	Z31	X32	Y32	Z32	X33	Y33	Z33	X34	Y34	Z34	X35	Y35	Z35	X36	Y36	Z36

1644	6.57200	-1372.50171	1018.09027	276.80014	-1546.70776	957.74335	334.06598	-1342.23657	637.95032	356.78229	-1332.63599	577.30182	345.68326	-1415.59790	621.94318	355.01517	-1397.07788	563.92157	344.41821	-1330.12585	488.84912	331.36877	-1329.88416	487.89905	218.49350	-1218.26221	327.84540	326.86594	-1211.43591	282.02017	319.95734	-1277.46033	315.48981	333.49030	-1262.21851	270.62836	326.31186	-1212.94812	115.01183	288.36298	-1234.65076	126.86183	211.37621	-1137.51453	79.59498	261.02847	-1339.33301	49.09786	301.11902	-1368.45581	60.89120	244.57732	-1340.46265	52.23777	206.92737	-1386.46167	1006.51807	165.63229	-1561.05200	970.08307	128.34372	-1563.73938	584.49084	109.43090	-1587.85046	527.89789	123.27814	-1619.55090	608.43658	88.15061	-1650.86975	555.99756	94.30995	-1680.82153	497.02545	114.35648	-1664.73792	505.11264	226.91734	-1676.82666	294.54382	109.24500	-1700.34058	253.88347	109.92226	-1732.68909	317.16327	92.73811	-1744.83362	275.56610	94.84557	-1812.87878	129.46335	120.00687	-1830.66931	146.07945	196.71242	-1776.31128	61.04234	166.22166	-1961.51489	157.39749	185.02962	-1971.16589	180.03674	143.69423	-1940.85571	121.73877	86.72139
1645	6.57600	-1377.75842	1017.07733	276.08047	-1552.39575	956.89911	333.87262	-1346.17139	637.91083	356.38971	-1336.47766	577.17603	345.50504	-1419.54504	621.63898	355.23828	-1400.74353	563.59900	344.64859	-1333.69824	488.69940	331.31937	-1333.96716	487.53198	218.43495	-1220.67957	328.51837	326.79196	-1212.88586	282.66318	319.75568	-1279.65991	315.61118	333.48080	-1264.04077	270.96222	326.32263	-1213.54822	115.68332	288.39966	-1235.41357	127.34054	211.37659	-1137.74658	80.35117	261.00040	-1339.37476	49.07453	301.09427	-1368.61597	60.68690	244.66582	-1340.62061	52.18565	206.92300	-1391.56812	1005.43579	165.07870	-1566.12939	968.80804	128.18233	-1568.05164	583.13501	108.95572	-1592.30054	525.88116	123.08216	-1624.03369	606.71521	87.60634	-1656.81165	554.35437	95.15999	-1684.96973	495.48944	114.34581	-1668.12964	503.09476	226.97176	-1683.83740	293.37079	108.71407	-1707.99792	252.86502	109.57743	-1739.60071	316.72308	92.76234	-1752.29199	275.24341	94.94863	-1822.04272	129.95955	120.34359	-1838.82019	146.70227	198.04564	-1785.97229	61.09943	166.18980	-1969.82996	159.55096	186.71707	-1979.74084	182.40289	145.62881	-1950.71338	123.71186	88.33634
1646	6.58000	-1383.03174	1016.10107	275.36542	-1557.22607	956.05042	334.00507	-1350.34009	637.79907	356.08484	-1340.39246	577.20892	345.16019	-1423.54675	621.33862	355.43823	-1404.71228	563.30780	344.86621	-1337.24377	488.59232	331.31610	-1338.04419	487.05576	218.38078	-1223.12903	329.23651	326.75320	-1215.56848	283.78867	320.59549	-1282.05652	315.82306	333.44714	-1266.01501	271.31427	326.35217	-1214.16553	116.38931	288.38577	-1236.15613	127.91467	211.39340	-1138.04639	81.19485	260.99423	-1339.44067	49.03893	301.06952	-1368.79761	60.52046	244.75031	-1340.79346	52.13633	206.90105	-1397.13843	1004.29163	164.63277	-1572.38318	967.91327	128.03503	-1572.49011	581.78522	108.49167	-1596.44141	524.54974	122.78539	-1628.63257	605.04407	87.08376	-1661.14429	552.53748	94.64941	-1688.97974	494.00577	114.27615	-1671.53345	501.08075	227.02173	-1690.71289	292.14853	108.16295	-1715.28259	252.03229	109.12058	-1746.27039	316.29663	92.87205	-1759.52100	274.90375	95.05605	-1830.89429	130.41913	120.65233	-1846.84155	147.28946	198.52913	-1795.17749	61.08405	166.08592	-1977.74841	161.51031	188.43443	-1987.88831	184.48802	147.48006	-1960.08496	125.32948	89.99440
1647	6.58400	-1388.42847	1015.06219	274.71368	-1562.51770	955.21234	333.99289	-1354.69849	637.72528	355.85211	-1344.40320	577.15735	344.90887	-1427.62463	621.00940	355.62125	-1408.64392	563.05060	345.11813	-1341.01160	488.47668	331.35831	-1342.28125	486.69864	218.35855	-1225.64478	329.94925	326.64835	-1217.69861	284.60822	320.52048	-1284.38538	316.08160	333.60303	-1268.05017	271.68954	326.40912	-1214.77124	117.22020	288.46231	-1236.87207	128.53276	211.46939	-1138.36829	82.08257	260.96573	-1339.50122	49.01379	301.02530	-1369.05066	60.34137	244.81601	-1340.98071	52.09709	206.90440	-1402.48474	1003.24805	164.24976	-1577.97302	966.90015	127.86391	-1576.91321	580.54797	108.03453	-1600.70850	523.18079	122.39793	-1633.14355	603.47388	86.54552	-1665.38184	550.81610	94.12740	-1693.18506	492.61444	114.29998	-1674.85840	499.10889	227.11642	-1697.29236	291.20599	107.42819	-1722.34448	251.25296	108.73923	-1752.86377	315.89392	92.99579	-1766.39038	274.70731	94.82083	-1839.35999	130.75673	120.91983	-1854.28247	147.72493	198.93362	-1803.91821	60.99498	165.87268	-1985.20447	163.14340	190.15523	-1995.49939	186.31444	149.33116	-1969.00525	126.76190	91.66512
